<?xml version="1.0" encoding="UTF-8" standalone="no"?>
<svg
   width="128"
   height="128"
   viewBox="0 0 128 128"
   version="1.1"
   id="svg2"
   xmlns="http://www.w3.org/2000/svg"
   xmlns:svg="http://www.w3.org/2000/svg"
   xmlns:rdf="http://www.w3.org/1999/02/22-rdf-syntax-ns#"
   xmlns:cc="http://creativecommons.org/ns#"
   xmlns:dc="http://purl.org/dc/elements/1.1/">
  <defs
     id="defs2" />
  <title
     id="title1">favicon</title>
  <text
     xml:space="preserve"
     style="font-size:103.942px;line-height:1.25;font-family:'Arial Rounded MT Bold';-inkscape-font-specification:'Arial Rounded MT Bold, ';text-align:center;letter-spacing:0px;word-spacing:0px;text-anchor:middle;stroke-width:0.999999"
     x="63.517849"
     y="100.97351"
     id="text2"><tspan
       id="tspan2"
       x="63.517849"
       y="100.97351"
       style="font-style:normal;font-variant:normal;font-weight:normal;font-stretch:normal;font-family:Arial;-inkscape-font-specification:Arial;stroke-width:0.999999">🎤</tspan></text>
  <metadata
     id="metadata2">
    <rdf:RDF>
      <cc:Work
         rdf:about="">
        <dc:title>favicon</dc:title>
      </cc:Work>
    </rdf:RDF>
  </metadata>
  <path
     style="fill:#3771c8;stroke:none;stroke-width:3.00094"
     d="m 67.038614,39.182165 c -12.979587,14.646259 -25.90092,29.35436 -38.716541,44.139917 0.102724,1.18218 1.464453,1.893724 2.113072,2.808211 4.47877,4.457837 8.801385,9.094824 13.523771,13.295591 0.887507,0.858186 1.58457,-0.812663 2.303081,-1.122983 C 60.506767,85.873027 74.709654,73.395253 88.930018,60.937484 87.231861,58.774413 84.915556,56.855758 82.979503,54.786751 77.727717,49.572891 72.557261,44.271068 67.200937,39.166155 Z m -1.392421,18.045454 c 3.592708,-0.06461 6.298781,4.356863 4.432091,7.514454 -1.876526,2.455731 -4.0518,4.750688 -6.605889,6.501825 -3.150939,1.644141 -7.4659,-1.077882 -7.212933,-4.643335 -0.09943,-2.913967 2.667041,-4.686895 4.422946,-6.585092 1.381636,-1.354279 2.892983,-2.847954 4.963785,-2.787852 z"
     id="path2" />
  <path
     style="fill:#7137c8;stroke:none;stroke-width:3.00094"
     d="m 24.43254,87.635879 c -2.744367,3.192505 -5.540125,6.337855 -8.314508,9.503693 2.265764,2.682513 5.059929,5.137848 7.529671,7.732338 2.372452,2.2813 4.612151,4.80941 7.07542,6.93546 3.195706,-2.65678 6.325733,-5.41897 9.353376,-8.26559 -1.141014,-1.65413 -2.861073,-3.0213 -4.225889,-4.552539 C 32.124287,95.187852 28.367621,91.41655 24.626884,87.629208 Z"
     id="path3" />
  <path
     style="fill:#999999;stroke:none;stroke-width:3.00094"
     d="m 75.314432,21.84115 c -2.920475,3.72329 -4.32957,8.378675 -4.650169,13.05279 0.227181,1.242537 1.82101,1.970507 2.572409,3.012445 6.452027,6.421845 12.836974,12.947691 19.331166,19.304334 3.771172,-0.03422 7.488052,-0.975596 10.782112,-2.821964 0.96411,-0.551341 2.17695,-1.059218 2.73653,-1.994366 C 95.89684,42.203486 85.707091,32.012698 75.517225,21.822027 Z"
     id="path4" />
  <path
     style="fill:#999999;stroke:none;stroke-width:3.00094"
     d="m 92.168923,13.441255 c -4.312208,0.09288 -8.610268,1.531522 -12.174689,3.941564 -1.719766,0.810572 0.657575,1.863414 1.195853,2.722998 9.526697,9.537624 19.053543,19.075099 28.580453,28.612507 1.7017,-1.417878 2.5364,-3.805673 3.38078,-5.872989 1.56764,-4.139976 1.69972,-8.786799 0.68976,-13.072137 -2.4643,-9.506365 -11.79431,-16.722778 -21.672157,-16.331943 z m 4.014943,5.44828 c 0.506797,1.825544 -0.61564,2.033072 -2.151988,1.808685 -0.560838,-0.04185 -1.724524,0.126995 -1.422236,-0.854758 -0.02299,-0.880276 0.04554,-1.75932 0.07605,-2.638531 1.054229,0.302268 3.534266,-0.871528 3.498177,0.560349 0,0.374751 0,0.749503 0,1.124255 z m -9.089657,-1.794006 c 2.030988,-0.601061 1.946173,0.913681 1.803344,2.486437 0.506725,1.936651 -2.025619,0.834235 -3.169528,1.120253 -0.824764,-0.298556 -0.479392,-2.970899 -0.209464,-3.60669 0.525216,0 1.050432,0 1.575648,0 z m 9.089657,9.080319 c 0.506797,1.825544 -0.61564,2.033072 -2.151988,1.808685 -0.560838,-0.04185 -1.724524,0.126995 -1.422236,-0.854758 -0.02299,-0.880276 0.04554,-1.759321 0.07605,-2.638531 1.054229,0.302267 3.534266,-0.871528 3.498177,0.560348 0,0.374752 0,0.749504 0,1.124256 z"
     id="path5" />
</svg>
